<svg height="176" viewBox="0 0 312 176" width="312" xmlns="http://www.w3.org/2000/svg"><g fill="none" fill-rule="evenodd"><path d="m0 0h312v176h-312z" fill="#af2cf0"/><path d="m286 154h26v22h-26z" fill="#af2cf1"/><path d="m286 132h26v22h-26z" fill="#b32bdd"/><path d="m260 132h26v22h-26z" fill="#af2cf1"/><path d="m286 110h26v22h-26z" fill="#cf2a9b"/><path d="m260 110h26v22h-26z" fill="#bb2cc8"/><path d="m234 110h26v22h-26z" fill="#af2be9"/><path d="m286 88h26v22h-26z" fill="#e73750"/><path d="m260 88h26v22h-26z" fill="#d72e7e"/><path d="m234 88h26v22h-26z" fill="#c72bab"/><path d="m208 88h26v22h-26z" fill="#b72bd9"/><path d="m286 66h26v22h-26z" fill="#f3681f"/><path d="m260 66h26v22h-26z" fill="#ef423f"/><path d="m234 66h26v22h-26z" fill="#e33461"/><path d="m208 66h26v22h-26z" fill="#d32c8f"/><path d="m182 66h26v22h-26z" fill="#bf2bc0"/><path d="m156 66h26v22h-26z" fill="#b32ce5"/><path d="m130 66h26v22h-26z" fill="#af2cf1"/><path d="m286 44h26v22h-26z" fill="#f7ab00"/><path d="m260 44h26v22h-26z" fill="#f3681f"/><path d="m234 44h26v22h-26z" fill="#f3592b"/><path d="m208 44h26v22h-26z" fill="#eb3b4c"/><path d="m182 44h26v22h-26z" fill="#db2e72"/><path d="m156 44h26v22h-26z" fill="#cb2aa3"/><path d="m130 44h26v22h-26z" fill="#bb2ad0"/><path d="m104 44h26v22h-26z" fill="#af2cf1"/><path d="m286 22h26v22h-26z" fill="#f7c600"/><path d="m260 22h26v22h-26z" fill="#f7bb00"/><path d="m234 22h26v22h-26z" fill="#f79f00"/><path d="m208 22h26v22h-26z" fill="#f7741c"/><path d="m182 22h26v22h-26z" fill="#ef4936"/><path d="m156 22h26v22h-26z" fill="#e33459"/><path d="m130 22h26v22h-26z" fill="#d32b86"/><path d="m104 22h26v22h-26z" fill="#c32ab8"/><path d="m78 22h26v22h-26z" fill="#b32bdd"/><g fill="#f7c600"><path d="m286 0h26v22h-26z"/><path d="m260 0h26v22h-26z"/><path d="m234 0h26v22h-26z"/></g><path d="m208 0h26v22h-26z" fill="#f7af00"/><path d="m182 0h26v22h-26z" fill="#f78f09"/><path d="m156 0h26v22h-26z" fill="#f36125"/><path d="m130 0h26v22h-26z" fill="#eb3e43"/><path d="m104 0h26v22h-26z" fill="#df316a"/><path d="m78 0h26v22h-26z" fill="#cf2a9b"/><path d="m52 0h26v22h-26z" fill="#bb2cc8"/><path d="m0 0h26v22h-26z" fill="#af2cf1"/></g></svg>